<svg xmlns="http://www.w3.org/2000/svg" fill="#fff" width="800px" height="800px" viewBox="0 0 512 512">
  <!-- Outer circle -->
  <path d="M256,0C114.609,0,0,114.609,0,256s114.609,256,256,256s256-114.609,256-256S397.391,0,256,0z 
           M256,472c-119.297,0-216-96.703-216-216S136.703,40,256,40s216,96.703,216,216S375.297,472,256,472z"/>
  
  <!-- Inner circle with minus -->
  <path fill-rule="evenodd" clip-rule="evenodd" 
        d="M256,128c-70.695,0-128,57.312-128,128s57.305,128,128,128 
           c70.688,0,128-57.312,128-128S326.688,128,256,128z 
           M320,272H192v-32h128V272z"/>
</svg>
