<svg width="250" height="235" viewBox="0 0 250 235" fill="none" xmlns="http://www.w3.org/2000/svg">
<ellipse cx="125.5" cy="117" rx="98.5" ry="96" fill="white"/>
<path d="M153.809 114.287C154.35 114.9 154.596 115.242 154.729 116.216C154.731 116.515 154.734 116.813 154.736 117.12C154.74 117.368 154.74 117.368 154.743 117.62C154.75 118.162 154.751 118.705 154.752 119.248C154.756 119.631 154.76 120.014 154.764 120.397C154.774 121.384 154.779 122.37 154.783 123.357C154.786 124.061 154.791 124.766 154.797 125.47C154.815 127.645 154.82 129.82 154.824 131.996C154.825 132.358 154.825 132.72 154.826 133.083C154.829 134.778 154.831 136.474 154.833 138.17C154.834 140.105 154.839 142.041 154.845 143.976C154.85 145.493 154.852 147.009 154.853 148.525C154.853 149.423 154.855 150.321 154.859 151.219C154.863 152.058 154.863 152.897 154.862 153.736C154.862 154.186 154.865 154.636 154.868 155.086C154.86 157.126 154.649 159.063 153.768 160.745C152.556 162.338 150.9 162.722 149.342 163.285C149.068 163.386 148.794 163.487 148.521 163.587C147.775 163.861 147.029 164.133 146.283 164.404C145.65 164.634 145.018 164.865 144.385 165.097C142.156 165.913 139.926 166.722 137.695 167.529C137.519 167.593 137.344 167.657 137.162 167.722C131.809 169.66 126.452 171.584 121.094 173.496C120.95 173.547 120.806 173.599 120.658 173.652C118.92 174.272 117.181 174.89 115.442 175.506C115.131 175.616 114.82 175.726 114.51 175.837C113.234 176.289 111.956 176.733 110.677 177.168C110.485 177.234 110.293 177.299 110.096 177.367C109.509 177.566 108.922 177.761 108.334 177.953C108.159 178.013 107.985 178.073 107.804 178.134C103.245 179.599 99.8784 176.271 96.0686 173.227C95.5472 172.813 95.0232 172.406 94.4983 172.002C94.3314 171.872 94.1645 171.742 93.9926 171.608C93.6792 171.365 93.365 171.123 93.05 170.883C91.7929 169.899 90.4418 168.706 89.8437 166.783C89.7833 166.598 89.7229 166.412 89.6606 166.22C89.3714 165.15 89.3319 164.179 89.3337 163.039C89.3333 162.863 89.333 162.687 89.3326 162.506C89.3316 161.917 89.3317 161.328 89.3318 160.739C89.3313 160.317 89.3308 159.895 89.3302 159.472C89.3287 158.325 89.3283 157.179 89.3282 156.032C89.3281 155.075 89.3275 154.119 89.3269 153.162C89.3256 150.907 89.3252 148.651 89.3253 146.396C89.3254 144.066 89.3237 141.736 89.3211 139.407C89.319 137.408 89.3181 135.41 89.3182 133.412C89.3183 132.217 89.3178 131.023 89.3161 129.829C89.3145 128.706 89.3145 127.584 89.3157 126.462C89.3158 126.049 89.3154 125.636 89.3145 125.223C89.3132 124.662 89.314 124.1 89.3152 123.539C89.3144 123.374 89.3135 123.209 89.3127 123.039C89.3183 121.913 89.3183 121.913 89.681 121.401C90.3048 121.46 90.5547 121.912 90.9525 122.549C93.7775 126.642 98.2955 128.254 102.051 129.893C102.142 129.933 102.234 129.973 102.328 130.014C104.808 130.729 107.298 129.682 109.685 128.828C110.079 128.691 110.472 128.554 110.866 128.418C111.7 128.128 112.534 127.835 113.367 127.54C114.568 127.115 115.769 126.695 116.971 126.277C118.729 125.665 120.487 125.05 122.244 124.433C124.443 123.66 126.644 122.896 128.846 122.14C128.99 122.091 129.133 122.041 129.282 121.99C129.978 121.752 130.674 121.513 131.37 121.275C132.555 120.868 133.74 120.461 134.925 120.053C135.305 119.923 135.685 119.792 136.066 119.661C137.505 119.167 138.944 118.671 140.383 118.176C141.451 117.808 142.519 117.44 143.587 117.074C144.209 116.86 144.831 116.646 145.452 116.431C146.022 116.235 146.592 116.039 147.162 115.844C147.463 115.74 147.765 115.636 148.066 115.531C152.824 113.903 152.824 113.903 153.809 114.287Z" fill="#333333"/>
<path d="M154.134 47.7344C154.545 48.1288 154.545 48.1288 154.785 48.8818C154.881 49.8411 154.883 50.7831 154.877 51.7505C154.881 52.0093 154.884 52.2682 154.888 52.5349C154.888 52.7849 154.888 53.0348 154.888 53.2924C154.888 53.633 154.888 53.633 154.888 53.9804C154.737 54.918 154.527 55.2008 153.971 55.7666C153.336 56.0708 152.688 56.2436 152.03 56.421C151.63 56.5375 151.231 56.6548 150.831 56.7726C150.624 56.833 150.416 56.8933 150.203 56.9554C149.197 57.2578 148.198 57.6037 147.2 57.9522C146.997 58.0225 146.795 58.0928 146.586 58.1653C146.056 58.3498 145.525 58.5348 144.995 58.7202C144.539 58.8796 144.082 59.0384 143.626 59.1972C141.223 60.0333 138.822 60.8759 136.422 61.7262C136.211 61.8009 136 61.8756 135.79 61.9502C135.685 61.9872 135.581 62.0241 135.473 62.0622C135.052 62.2115 134.63 62.3608 134.209 62.5102C133.996 62.5853 133.784 62.6606 133.572 62.7358C129.751 64.0891 125.922 65.3936 122.09 66.6831C117.652 68.1764 113.224 69.7162 108.8 71.2846C108.597 71.3563 108.395 71.4281 108.186 71.5021C107.989 71.5718 107.793 71.6415 107.59 71.7134C106.03 72.2658 104.469 72.8061 102.905 73.3371C102.601 73.4407 102.601 73.4407 102.291 73.5464C101.518 73.8101 100.744 74.0731 99.9694 74.3323C96.7078 75.4171 96.7078 75.4171 93.5872 77.1094C93.5872 77.2608 93.5872 77.4123 93.5872 77.5684C95.5671 79.1081 97.5945 80.1592 99.7721 81.0107C99.8905 81.059 100.009 81.1073 100.131 81.1571C102.003 81.8438 103.783 81.4261 105.621 80.7391C105.834 80.6622 106.048 80.5856 106.261 80.5093C106.711 80.3478 107.16 80.1843 107.61 80.0189C108.317 79.7584 109.026 79.5029 109.735 79.2483C109.973 79.163 110.21 79.0776 110.448 78.9923C110.565 78.9503 110.682 78.9083 110.802 78.8651C111.153 78.7387 111.505 78.6118 111.856 78.4848C113.399 77.9274 114.944 77.3931 116.496 76.8851C119.109 76.0292 121.712 75.1196 124.314 74.1991C124.883 73.9981 125.451 73.7976 126.019 73.597C126.859 73.3006 127.699 73.0041 128.538 72.7076C132.228 71.4047 135.918 70.1046 139.608 68.809C140.812 68.3864 142.016 67.9632 143.219 67.5386C144.301 67.1568 145.383 66.7762 146.465 66.397C147.029 66.1994 147.592 66.0014 148.156 65.8019C148.774 65.5829 149.393 65.3665 150.012 65.1503C150.192 65.0861 150.372 65.0218 150.558 64.9557C153.31 64.0011 153.31 64.0011 154.134 64.6307C154.881 65.8808 154.849 67.1665 154.856 68.7329C154.862 68.948 154.867 69.163 154.873 69.3846C154.874 69.5932 154.875 69.8018 154.876 70.0166C154.878 70.2052 154.88 70.3938 154.883 70.5881C154.737 71.4148 154.475 71.8548 153.971 72.29C153.303 72.6252 152.62 72.8283 151.927 73.0377C151.608 73.1403 151.288 73.2429 150.969 73.3461C150.629 73.4558 150.288 73.5639 149.947 73.6721C148.908 74.0045 147.874 74.3677 146.839 74.7297C146.472 74.858 146.105 74.9858 145.738 75.1133C145.088 75.3391 144.439 75.5652 143.789 75.7914C143.375 75.9356 142.961 76.0797 142.547 76.2238C138.94 77.4793 135.334 78.7429 131.73 80.0139C131.548 80.0781 131.366 80.1423 131.178 80.2085C129.379 80.8428 127.581 81.4777 125.782 82.1136C119.529 84.3242 119.529 84.3242 116.524 85.3309C115.595 85.6421 114.67 85.9694 113.744 86.298C113.041 86.5458 112.337 86.7875 111.633 87.0277C111.507 87.0707 111.381 87.1137 111.251 87.158C110.737 87.3332 110.224 87.5082 109.71 87.6827C109.327 87.813 108.944 87.9438 108.561 88.0748C108.375 88.1382 108.375 88.1382 108.186 88.2028C107.178 88.5501 106.177 88.9297 105.177 89.3235C101.112 90.7138 95.649 87.1725 92.1644 84.3169C90.7668 83.0695 89.7711 81.6192 89.1927 79.4043C89.0804 78.4799 89.0711 77.5865 89.0808 76.6504C89.0763 76.4173 89.0718 76.1842 89.0671 75.944C89.0716 74.0033 89.5127 72.6579 90.4162 71.2042C91.7069 69.4853 93.4855 68.6646 95.1716 68.0722C95.3519 68.0063 95.5322 67.9404 95.7179 67.8726C96.3091 67.6581 96.9011 67.449 97.4935 67.2412C97.8009 67.1328 97.8009 67.1328 98.1146 67.0222C99.7681 66.44 101.424 65.8716 103.08 65.3039C103.756 65.0723 104.431 64.84 105.106 64.607C105.409 64.5027 105.712 64.3993 106.015 64.296C107.217 63.8815 108.414 63.4421 109.608 62.9879C113.092 61.6646 116.593 60.4364 120.094 59.2055C121.011 58.8829 121.929 58.5595 122.846 58.2363C124.582 57.6247 126.318 57.0137 128.054 56.4029C130.01 55.7149 131.965 55.0263 133.92 54.3376C136.145 53.5542 138.369 52.7709 140.593 51.988C140.936 51.8675 141.278 51.7469 141.621 51.6263C142.439 51.3382 143.257 51.0505 144.076 50.7634C145.426 50.2897 146.775 49.8144 148.122 49.3242C148.666 49.1261 149.211 48.9297 149.755 48.7334C150.122 48.6003 150.489 48.4646 150.855 48.3288C151.964 47.9248 152.984 47.584 154.134 47.7344Z" fill="#333333"/>
<path d="M153.809 97.7637C154.438 98.4104 154.716 99.0268 154.948 100.059C154.983 100.681 155.001 101.273 154.999 101.895C155.001 102.055 155.004 102.215 155.007 102.38C155.007 103.409 154.946 104.096 154.46 104.878C153.612 105.46 152.761 105.802 151.847 106.113C151.703 106.163 151.559 106.213 151.411 106.265C150.934 106.431 150.457 106.595 149.979 106.76C149.641 106.877 149.302 106.995 148.964 107.112C148.244 107.363 147.524 107.612 146.804 107.86C145.675 108.25 144.545 108.642 143.416 109.035C143.038 109.166 142.661 109.297 142.283 109.428C142.097 109.493 141.91 109.558 141.719 109.624C141.155 109.82 140.591 110.016 140.027 110.211C137.31 111.153 134.595 112.105 131.881 113.066C124.776 115.58 117.662 118.047 110.539 120.455C110.366 120.514 110.193 120.572 110.015 120.632C109.686 120.744 109.356 120.855 109.027 120.966C108.216 121.24 107.408 121.522 106.602 121.817C102.211 123.361 96.4952 119.751 92.7238 116.738C91.0893 115.302 89.8085 113.79 89.3555 111.074C89.1673 109.831 89.1628 108.611 89.1622 107.345C89.1602 107.136 89.1582 106.927 89.1561 106.712C89.1558 106.513 89.1555 106.313 89.1552 106.108C89.1545 105.927 89.1539 105.746 89.1532 105.559C89.1927 105.107 89.1927 105.107 89.5182 104.648C89.9061 104.557 89.9061 104.557 90.332 104.648C90.6461 105.07 90.6461 105.07 90.9627 105.652C93.217 109.373 96.7412 110.969 99.9349 112.451C100.096 112.526 100.096 112.526 100.26 112.603C103.228 113.978 105.351 113.899 108.348 112.853C108.617 112.761 108.887 112.669 109.157 112.578C110.35 112.171 111.538 111.749 112.722 111.297C113.972 110.822 115.23 110.411 116.492 110.005C119.697 108.971 122.894 107.892 126.088 106.8C126.202 106.761 126.315 106.723 126.431 106.683C130.22 105.388 134.003 104.062 137.784 102.723C140.765 101.667 143.748 100.631 146.74 99.6409C146.863 99.6 146.987 99.5591 147.114 99.5169C147.354 99.4374 147.594 99.3582 147.835 99.2793C148.484 99.0646 149.131 98.8369 149.775 98.595C149.919 98.5419 150.063 98.4887 150.211 98.434C150.485 98.3321 150.759 98.2281 151.032 98.1212C151.947 97.7832 152.863 97.5824 153.809 97.7637Z" fill="#333333"/>
<path d="M153.809 81.0107C154.247 81.5101 154.534 81.9082 154.785 82.6172C154.828 83.3664 154.823 84.1177 154.826 84.8691C154.831 85.1799 154.831 85.1799 154.836 85.497C154.844 87.4736 154.844 87.4736 154.297 88.3545C153.628 89.0239 152.927 89.2923 152.141 89.5583C151.94 89.6286 151.94 89.6286 151.735 89.7003C151.291 89.8553 150.846 90.0076 150.401 90.1599C150.087 90.269 149.773 90.3783 149.458 90.4877C148.618 90.7799 147.776 91.0697 146.935 91.3589C146.065 91.6587 145.194 91.9607 144.324 92.2623C140.343 93.641 136.36 95.0058 132.373 96.3503C130.346 97.034 128.323 97.7343 126.302 98.4521C120.764 100.419 115.205 102.269 109.649 104.133C109.456 104.198 109.456 104.198 109.259 104.264C109.009 104.348 108.759 104.431 108.508 104.514C107.893 104.719 107.278 104.928 106.664 105.145C106.479 105.209 106.479 105.209 106.29 105.275C106.059 105.355 105.829 105.437 105.598 105.521C104.53 105.89 103.545 105.936 102.479 105.517C102.32 105.455 102.162 105.393 101.998 105.33C101.831 105.261 101.664 105.192 101.491 105.122C101.226 105.015 101.226 105.015 100.956 104.905C91.5154 101.004 91.5154 101.004 89.5716 96.1689C89.2148 94.9347 89.2913 93.6089 89.3046 92.2989C89.3038 91.9051 89.3038 91.9051 89.303 91.5033C89.312 89.5633 89.312 89.5633 89.681 89.043C90.037 89.0286 90.037 89.0286 90.4948 89.2725C90.6569 89.4884 90.812 89.7149 90.9627 89.9466C93.3374 93.4451 96.9038 95.105 100.111 96.4817C100.387 96.6007 100.662 96.7263 100.936 96.8529C103.815 98.0553 106.444 97.0023 109.251 95.9287C110.241 95.556 111.237 95.2184 112.233 94.8807C112.451 94.8064 112.669 94.732 112.886 94.6577C114.8 94.005 116.716 93.3667 118.631 92.7276C124.745 90.6878 130.847 88.592 136.941 86.4407C137.714 86.168 138.486 85.8954 139.259 85.6231C139.368 85.5847 139.477 85.5464 139.589 85.5068C140.139 85.3128 140.69 85.1189 141.24 84.9249C142.353 84.533 143.465 84.1403 144.577 83.7465C145.659 83.3633 146.742 82.9825 147.825 82.603C148.23 82.4607 148.635 82.3177 149.039 82.1738C149.598 81.9754 150.157 81.7796 150.716 81.5845C150.879 81.5259 151.042 81.4672 151.21 81.4068C152.099 81.1 152.893 80.8982 153.809 81.0107Z" fill="#333333"/>
<path d="M154.785 66.3232C155.257 67.321 155.303 67.8311 155.314 69.0341C155.318 69.3149 155.323 69.5956 155.327 69.8849C155.27 70.7352 155.166 71.1719 154.785 71.8311C154.624 71.8311 154.463 71.8311 154.297 71.8311C154.458 71.4903 154.458 71.4903 154.622 71.1426C154.682 70.6103 154.682 70.6103 154.69 70.0211C154.696 69.8059 154.702 69.5907 154.709 69.3689C154.714 69.1449 154.719 68.9208 154.724 68.6899C154.73 68.4631 154.737 68.2364 154.743 68.0027C154.759 67.443 154.772 66.8832 154.785 66.3232ZM154.46 72.29C154.406 72.4415 154.352 72.593 154.297 72.749C153.813 72.749 153.33 72.749 152.832 72.749C153.874 72.0146 153.874 72.0146 154.46 72.29Z" fill="#E7E8E9"/>
<path d="M89.5182 104.648C89.5719 104.648 89.6256 104.648 89.681 104.648C89.6904 105.514 89.6962 106.379 89.7013 107.245C89.7054 107.614 89.7054 107.614 89.7096 107.99C89.7106 108.226 89.7117 108.462 89.7128 108.705C89.7145 108.922 89.7162 109.14 89.7179 109.364C89.681 109.927 89.681 109.927 89.3555 110.615C89.1365 109.539 89.1627 108.486 89.1622 107.374C89.1602 107.163 89.1582 106.952 89.1561 106.734C89.1558 106.533 89.1555 106.332 89.1552 106.124C89.1545 105.94 89.1539 105.756 89.1532 105.566C89.1927 105.107 89.1927 105.107 89.5182 104.648Z" fill="#21282C"/>
<path d="M98.6328 80.3223C99.1699 80.398 99.707 80.4737 100.26 80.5518C100.26 80.7032 100.26 80.8547 100.26 81.0107C101.281 81.0865 102.301 81.1622 103.353 81.2402C103.353 81.3917 103.353 81.5432 103.353 81.6992C101.669 81.8456 100.235 81.4308 98.6328 80.7813C98.6328 80.6298 98.6328 80.4783 98.6328 80.3223Z" fill="#DCDEDF"/>
<path d="M113.281 102.812C113.228 103.04 113.174 103.267 113.118 103.501C112.947 103.529 112.776 103.558 112.6 103.587C111.997 103.693 111.997 103.693 111.532 103.989C111.165 104.189 111.165 104.189 110.677 103.96C110.731 103.808 110.785 103.657 110.84 103.501C111.266 103.306 111.266 103.306 111.796 103.128C112.057 103.038 112.057 103.038 112.324 102.947C112.793 102.812 112.793 102.812 113.281 102.812Z" fill="#EAEAEB"/>
<path d="M100.423 74.126C100.369 74.3532 100.316 74.5804 100.26 74.8145C100.046 74.7387 99.8307 74.663 99.6094 74.585C99.6094 74.7364 99.6094 74.8879 99.6094 75.0439C99.3945 74.9682 99.1797 74.8925 98.9583 74.8145C98.9583 74.9659 98.9583 75.1174 98.9583 75.2734C98.5824 75.1977 98.2064 75.122 97.819 75.0439C98.6243 74.3816 99.5006 74.126 100.423 74.126Z" fill="#E5E7E8"/>
<path d="M118.978 174.185C118.978 174.336 118.978 174.487 118.978 174.644C118.724 174.754 118.469 174.864 118.215 174.973C118.073 175.035 117.932 175.096 117.786 175.159C117.371 175.324 116.96 175.451 116.536 175.562C116.536 175.334 116.536 175.107 116.536 174.873C116.852 174.757 117.167 174.643 117.482 174.529C117.658 174.465 117.834 174.401 118.015 174.335C118.49 174.185 118.49 174.185 118.978 174.185Z" fill="#E7E8E9"/>
<path d="M113.77 176.021C113.77 176.172 113.77 176.323 113.77 176.479C112.967 176.948 112.373 177.261 111.491 177.168C111.437 177.017 111.383 176.865 111.328 176.709C111.643 176.593 111.959 176.479 112.274 176.365C112.45 176.301 112.625 176.237 112.806 176.171C113.281 176.021 113.281 176.021 113.77 176.021Z" fill="#E8EAEA"/>
<path d="M140.788 93.4033C140.734 93.6305 140.68 93.8577 140.625 94.0918C140.337 94.169 140.049 94.2454 139.76 94.3213C139.52 94.3852 139.52 94.3852 139.274 94.4504C138.835 94.5508 138.835 94.5508 138.346 94.5508C138.346 94.3993 138.346 94.2479 138.346 94.0918C138.662 93.9761 138.977 93.8615 139.292 93.7476C139.468 93.6837 139.644 93.6198 139.825 93.5539C140.299 93.4033 140.299 93.4033 140.788 93.4033Z" fill="#E7E8E9"/>
<path d="M133.952 79.1748C133.898 79.402 133.844 79.6292 133.789 79.8633C133.501 79.9405 133.213 80.0169 132.924 80.0928C132.684 80.1567 132.684 80.1567 132.438 80.2219C131.999 80.3223 131.999 80.3223 131.51 80.3223C131.51 80.1708 131.51 80.0193 131.51 79.8633C131.826 79.7475 132.141 79.633 132.456 79.519C132.632 79.4551 132.808 79.3912 132.989 79.3254C133.464 79.1748 133.464 79.1748 133.952 79.1748Z" fill="#E8E9E9"/>
<path d="M123.535 172.578C123.535 172.73 123.535 172.881 123.535 173.037C121.875 173.726 121.875 173.726 121.094 173.726C121.094 173.574 121.094 173.423 121.094 173.267C121.409 173.151 121.724 173.036 122.04 172.922C122.215 172.858 122.391 172.795 122.572 172.729C123.047 172.578 123.047 172.578 123.535 172.578Z" fill="#E9EAEB"/>
<path d="M103.902 105.064C104.031 105.061 104.16 105.058 104.293 105.055C104.655 105.107 104.655 105.107 105.143 105.566C104.505 105.867 104.027 105.841 103.353 105.796C103.245 105.644 103.138 105.493 103.027 105.337C103.284 104.974 103.547 105.068 103.902 105.064Z" fill="#23292C"/>
<path d="M130.697 72.29C130.224 72.7338 130.062 72.8181 129.527 72.8924C129.322 72.9208 129.117 72.9492 128.906 72.9785C128.906 73.1299 128.906 73.2814 128.906 73.4375C128.477 73.4375 128.047 73.4375 127.604 73.4375C128.013 72.8609 128.317 72.798 128.876 72.6056C129.045 72.5458 129.214 72.486 129.388 72.4245C129.84 72.3017 130.238 72.2637 130.697 72.29Z" fill="#13171B"/>
<path d="M133.464 95.9277C133.464 96.0792 133.464 96.2307 133.464 96.3867C133.328 96.4338 133.193 96.4808 133.053 96.5293C132.788 96.622 132.788 96.622 132.518 96.7166C132.254 96.8085 132.254 96.8085 131.985 96.9022C131.661 97.0203 131.34 97.1554 131.022 97.3047C131.022 97.0775 131.022 96.8503 131.022 96.6162C131.337 96.5005 131.653 96.386 131.968 96.272C132.144 96.2081 132.319 96.1442 132.5 96.0783C132.975 95.9277 132.975 95.9277 133.464 95.9277Z" fill="#E8E9EA"/>
<path d="M103.678 72.9785C103.625 73.2057 103.571 73.4329 103.516 73.667C102.879 74.0059 102.377 74.2642 101.725 73.8965C101.888 73.4375 101.888 73.4375 102.172 73.2923C102.286 73.255 102.401 73.2177 102.519 73.1793C102.689 73.1216 102.689 73.1216 102.863 73.0628C103.19 72.9785 103.19 72.9785 103.678 72.9785Z" fill="#E6E8E9"/>
<path d="M132.324 63.3399C132.271 63.4913 132.217 63.6428 132.161 63.7988C131.771 63.936 131.771 63.936 131.287 64.0427C130.795 64.1533 130.356 64.265 129.883 64.4873C129.883 64.2601 129.883 64.0329 129.883 63.7988C130.228 63.6774 130.574 63.5583 130.92 63.4403C131.113 63.3737 131.306 63.3071 131.504 63.2386C131.999 63.1104 131.999 63.1104 132.324 63.3399Z" fill="#E7E9E9"/>
<path d="M137.858 167.759C137.475 168.299 137.325 168.308 136.8 168.39C136.671 168.412 136.542 168.435 136.408 168.458C136.068 168.447 136.068 168.447 135.742 167.988C137.114 167.431 137.114 167.431 137.858 167.759Z" fill="#E8E9E9"/>
<path d="M151.367 162.71C151.313 162.861 151.26 163.013 151.204 163.169C150.775 163.169 150.345 163.169 149.902 163.169C149.902 163.32 149.902 163.472 149.902 163.628C149.419 163.514 149.419 163.514 148.926 163.398C149.67 162.811 150.53 162.238 151.367 162.71Z" fill="#E5E7E8"/>
<path d="M115.397 102.124C115.397 102.351 115.397 102.578 115.397 102.812C115.133 102.863 114.868 102.91 114.604 102.956C114.383 102.996 114.383 102.996 114.157 103.037C114.029 103.038 113.901 103.04 113.77 103.042C113.662 102.891 113.555 102.739 113.444 102.583C113.678 102.506 113.912 102.429 114.146 102.354C114.276 102.311 114.407 102.268 114.541 102.224C114.909 102.124 114.909 102.124 115.397 102.124Z" fill="#E6E7E8"/>
<path d="M140.299 77.1094C140.085 77.1851 139.87 77.2608 139.648 77.3389C139.648 77.4903 139.648 77.6418 139.648 77.7979C138.923 77.9115 138.923 77.9115 138.184 78.0274C138.13 77.8759 138.076 77.7244 138.021 77.5684C138.339 77.4469 138.658 77.3278 138.977 77.2098C139.155 77.1432 139.332 77.0767 139.515 77.0081C139.974 76.8799 139.974 76.8799 140.299 77.1094Z" fill="#E1E2E3"/>
<path d="M148.275 74.1259C148.021 74.2427 147.766 74.357 147.512 74.4702C147.299 74.566 147.299 74.566 147.083 74.6638C146.648 74.8141 146.279 74.8416 145.833 74.8144C145.78 74.663 145.726 74.5115 145.671 74.3554C145.982 74.2718 146.294 74.1911 146.606 74.1116C146.78 74.0663 146.954 74.0211 147.133 73.9744C147.583 73.903 147.853 73.9196 148.275 74.1259Z" fill="#0D1217"/>
<path d="M132.975 169.136C132.975 169.363 132.975 169.59 132.975 169.824C132.438 170.028 131.897 170.16 131.348 170.283C131.348 170.056 131.348 169.829 131.348 169.595C131.558 169.518 131.768 169.441 131.978 169.365C132.095 169.323 132.212 169.28 132.333 169.236C132.65 169.136 132.65 169.136 132.975 169.136Z" fill="#EBEDED"/>
<path d="M154.134 105.566C154.134 105.642 154.134 105.718 154.134 105.796C153.812 105.796 153.49 105.796 153.158 105.796C153.158 105.947 153.158 106.099 153.158 106.255C152.782 106.331 152.406 106.406 152.018 106.484C152.018 106.257 152.018 106.03 152.018 105.796C153.39 105.239 153.39 105.239 154.134 105.566Z" fill="#E7E8E9"/>
<path d="M155.273 100.518C155.327 100.518 155.381 100.518 155.436 100.518C155.436 101.502 155.436 102.487 155.436 103.501C155.382 103.501 155.329 103.501 155.273 103.501C155.273 102.516 155.273 101.532 155.273 100.518ZM154.948 103.501C155.055 103.501 155.163 103.501 155.273 103.501C155.22 103.88 155.166 104.258 155.111 104.648C155.003 104.346 154.896 104.043 154.785 103.73C154.839 103.655 154.893 103.579 154.948 103.501Z" fill="#EAEBEB"/>
<path d="M107.91 178.315C107.282 178.81 106.844 179.094 106.12 179.004C106.174 178.777 106.227 178.55 106.283 178.315C106.879 178.143 107.328 178.031 107.91 178.315Z" fill="#E3E4E5"/>
<path d="M150.065 114.287C150.226 114.287 150.387 114.287 150.553 114.287C150.553 114.514 150.553 114.742 150.553 114.976C149.963 115.127 149.372 115.279 148.763 115.435C148.817 115.207 148.87 114.98 148.926 114.746C149.302 114.746 149.678 114.746 150.065 114.746C150.065 114.595 150.065 114.443 150.065 114.287Z" fill="#EAEBEC"/>
<path d="M128.581 81.2402C127.458 82.1763 127.458 82.1763 126.709 82.1008C126.575 82.044 126.44 81.9872 126.302 81.9287C126.917 81.4227 127.917 80.7723 128.581 81.2402Z" fill="#E5E6E7"/>
<path d="M98.6328 80.3223C99.1699 80.398 99.707 80.4737 100.26 80.5518C100.314 80.779 100.368 81.0062 100.423 81.2402C99.1821 81.0394 99.1821 81.0394 98.6328 80.7812C98.6328 80.6298 98.6328 80.4783 98.6328 80.3223Z" fill="#E5E6E7"/>
<path d="M128.743 97.5342C128.743 97.6856 128.743 97.8371 128.743 97.9932C128.529 97.9932 128.314 97.9932 128.092 97.9932C128.092 98.1446 128.092 98.2961 128.092 98.4521C127.77 98.4521 127.448 98.4521 127.116 98.4521C127.062 98.3007 127.008 98.1492 126.953 97.9932C128.194 97.5342 128.194 97.5342 128.743 97.5342Z" fill="#DEE0E1"/>
<path d="M124.349 65.8643C124.295 66.0915 124.242 66.3187 124.186 66.5527C123.585 66.7708 123.16 66.7708 122.559 66.5527C123.168 66.0925 123.655 65.8643 124.349 65.8643Z" fill="#E7E8E9"/>
<path d="M149.251 163.628C148.691 164.155 148.285 164.211 147.624 164.316C147.624 164.089 147.624 163.862 147.624 163.628C148.206 163.344 148.655 163.456 149.251 163.628Z" fill="#E8E8E9"/>
<path d="M128.255 73.4375C127.695 73.9645 127.289 74.0205 126.628 74.126C126.628 73.8988 126.628 73.6716 126.628 73.4375C127.21 73.1534 127.659 73.2656 128.255 73.4375Z" fill="#202A31"/>
<path d="M121.745 124.614C121.213 125.047 120.722 125.186 120.117 125.303C120.117 125.076 120.117 124.848 120.117 124.614C120.719 124.396 121.143 124.396 121.745 124.614Z" fill="#ECEDEE"/>
<path d="M135.742 119.795C135.211 120.227 134.72 120.367 134.115 120.483C134.115 120.256 134.115 120.029 134.115 119.795C134.697 119.511 135.146 119.623 135.742 119.795Z" fill="#EBECED"/>
<path d="M120.931 74.8145C121.2 74.8145 121.468 74.8145 121.745 74.8145C121.799 74.9659 121.852 75.1174 121.908 75.2734C121.37 75.4249 120.833 75.5764 120.28 75.7324C120.28 75.581 120.28 75.4295 120.28 75.2734C120.495 75.2734 120.71 75.2734 120.931 75.2734C120.931 75.122 120.931 74.9705 120.931 74.8145Z" fill="#E8E9E9"/>
<path d="M110.352 177.168C110.352 177.395 110.352 177.622 110.352 177.856C109.273 178.143 109.273 178.143 108.724 177.627C108.934 177.55 109.144 177.473 109.355 177.397C109.472 177.355 109.589 177.312 109.709 177.268C110.026 177.168 110.026 177.168 110.352 177.168Z" fill="#E9EAEB"/>
<path d="M139.323 110.386C139.269 110.613 139.215 110.84 139.16 111.074C138.838 111.15 138.516 111.226 138.184 111.304C138.184 111.077 138.184 110.849 138.184 110.615C138.589 110.458 138.896 110.386 139.323 110.386Z" fill="#E8EAEA"/>
<path d="M105.143 72.749C105.09 72.9005 105.036 73.052 104.98 73.208C104.603 73.3015 104.223 73.3788 103.841 73.4375C103.841 73.2103 103.841 72.9831 103.841 72.749C104.338 72.5238 104.646 72.5238 105.143 72.749Z" fill="#E3E5E6"/>
<path d="M139.323 166.841C139.323 166.992 139.323 167.144 139.323 167.3C138.442 167.808 138.442 167.808 137.96 167.558C137.873 167.473 137.785 167.388 137.695 167.3C137.905 167.223 138.116 167.146 138.326 167.07C138.443 167.028 138.56 166.985 138.681 166.941C138.997 166.841 138.997 166.841 139.323 166.841Z" fill="#E9EAE9"/>
<path d="M97.9818 128.057C98.9672 128.012 98.9672 128.012 99.2838 128.057C99.3913 128.208 99.4987 128.36 99.6094 128.516C98.9885 128.852 98.5856 128.615 97.9818 128.286C97.9818 128.21 97.9818 128.135 97.9818 128.057Z" fill="#E6E7E8"/>
<path d="M92.9362 117.041C93.5581 117.163 93.9228 117.385 94.401 117.959C94.2399 118.073 94.2399 118.073 94.0755 118.188C93.6483 117.973 93.6483 117.973 93.2617 117.729C93.2617 117.578 93.2617 117.427 93.2617 117.271C93.1543 117.195 93.0469 117.119 92.9362 117.041Z" fill="#E5E7E8"/>
<path d="M130.046 80.5518C130.046 80.779 130.046 81.0062 130.046 81.2402C129.67 81.316 129.294 81.3917 128.906 81.4697C128.906 81.2425 128.906 81.0153 128.906 80.7812C129.312 80.6236 129.619 80.5518 130.046 80.5518Z" fill="#E7E8E9"/>
</svg>
